<svg xmlns="http://www.w3.org/2000/svg" width="27.068" height="27.068" viewBox="0 0 27.068 27.068">
  <g id="Group_36" data-name="Group 36" transform="translate(-311.998 -41.432)">
    <path id="times-solid" d="M18.665,19.686l7.7-7.7a2.419,2.419,0,0,0,0-3.42L24.65,6.86a2.419,2.419,0,0,0-3.42,0l-7.7,7.7-7.7-7.7a2.419,2.419,0,0,0-3.42,0L.708,8.57a2.419,2.419,0,0,0,0,3.42l7.7,7.7-7.7,7.7a2.419,2.419,0,0,0,0,3.42l1.71,1.71a2.419,2.419,0,0,0,3.42,0l7.7-7.7,7.7,7.7a2.419,2.419,0,0,0,3.42,0l1.71-1.71a2.419,2.419,0,0,0,0-3.42Z" transform="translate(311.998 35.28)" fill="#fff"/>
  </g>
</svg>
