<?xml version="1.0" standalone="no"?>
<!DOCTYPE svg PUBLIC "-//W3C//DTD SVG 20010904//EN"
 "http://www.w3.org/TR/2001/REC-SVG-20010904/DTD/svg10.dtd">
<svg version="1.0" xmlns="http://www.w3.org/2000/svg"
 width="35" height="35" viewBox="0 0 382.000000 388.000000"
 preserveAspectRatio="xMidYMid meet">

<g transform="translate(0.000000,388.000000) scale(0.100000,-0.100000)"
fill="#007EF4" stroke="none">
<path d="M1750 3755 c-8 -2 -55 -9 -105 -15 -720 -95 -1332 -644 -1515 -1359
-70 -276 -70 -626 0 -902 140 -546 542 -1015 1057 -1232 238 -100 440 -140
713 -141 201 0 319 14 489 60 561 152 1014 565 1227 1116 157 406 155 908 -6
1314 -190 478 -574 861 -1042 1040 -110 42 -249 80 -365 100 -79 14 -416 28
-453 19z m1111 -1061 c114 -54 190 -138 228 -252 20 -59 21 -83 21 -540 0
-526 -1 -539 -61 -634 -37 -57 -104 -120 -158 -147 -82 -42 -144 -51 -363 -51
-260 0 -248 -7 -248 143 0 56 5 109 10 117 8 12 48 16 228 20 241 6 253 9 292
73 19 30 20 53 20 472 0 485 0 483 -63 529 -26 19 -44 21 -245 24 -186 3 -219
6 -229 20 -9 10 -13 52 -13 119 0 153 -15 146 278 141 l237 -3 66 -31z m-1103
-18 c33 -18 745 -732 761 -763 6 -12 11 -37 11 -55 0 -30 -34 -67 -393 -425
-389 -390 -393 -393 -433 -393 -52 0 -90 28 -104 78 -5 20 -10 126 -10 235 l0
197 -295 0 c-243 0 -301 3 -325 15 -59 30 -60 37 -60 302 l0 243 29 32 29 33
311 3 311 3 0 197 c0 108 5 214 10 234 19 69 93 98 158 64z"/>
</g>
</svg>
