<?xml version="1.0" standalone="no"?>
<!DOCTYPE svg PUBLIC "-//W3C//DTD SVG 20010904//EN"
 "http://www.w3.org/TR/2001/REC-SVG-20010904/DTD/svg10.dtd">
<svg version="1.0" xmlns="http://www.w3.org/2000/svg"
 width="35px" height="35px" viewBox="0 0 337.000000 355.000000"
 preserveAspectRatio="xMidYMid meet">

<g transform="translate(0.000000,355.000000) scale(0.100000,-0.100000)"
fill="#007EF4" stroke="none">
<path d="M1486 3374 c-349 -47 -668 -198 -918 -433 -153 -144 -254 -281 -353
-481 -117 -235 -160 -426 -160 -715 0 -205 11 -281 74 -487 100 -332 306 -624
589 -834 105 -78 309 -181 452 -228 168 -56 249 -66 534 -66 247 0 253 1 365
30 368 97 667 292 896 585 174 224 300 527 335 810 19 147 7 391 -24 528 -80
339 -215 590 -445 818 -286 286 -625 444 -1026 478 -147 13 -193 12 -319 -5z
m972 -760 c13 -15 22 -38 22 -57 0 -41 -24 -197 -115 -737 -40 -239 -78 -469
-84 -510 -53 -351 -60 -384 -91 -413 -17 -15 -42 -27 -56 -27 -23 0 -129 41
-400 156 -45 19 -86 34 -91 34 -6 0 -21 -13 -34 -29 -13 -16 -67 -81 -119
-145 -102 -124 -127 -141 -185 -125 -57 16 -65 43 -65 227 l0 159 88 105 c48
58 140 171 204 249 64 79 176 216 248 304 368 447 356 433 343 446 -7 7 -52
-27 -139 -104 -71 -63 -255 -225 -409 -362 -154 -136 -316 -280 -360 -319 -44
-40 -99 -89 -122 -110 l-42 -38 -53 20 c-128 48 -365 155 -383 173 -14 13 -19
32 -19 61 1 34 7 46 35 69 19 16 37 29 42 29 4 0 25 11 47 25 22 14 113 67
202 118 90 52 278 160 418 241 140 82 334 193 430 249 96 55 222 128 280 163
58 34 155 90 215 124 122 68 151 71 193 24z"/>
</g>
</svg>
