<svg xmlns="http://www.w3.org/2000/svg" width="30.935" height="27.068" viewBox="0 0 30.935 27.068">
  <path id="bars-solid" d="M1.1,64.972H29.83a1.1,1.1,0,0,0,1.1-1.1V61.1a1.1,1.1,0,0,0-1.1-1.1H1.1A1.1,1.1,0,0,0,0,61.1v2.762A1.1,1.1,0,0,0,1.1,64.972Zm0,11.048H29.83a1.1,1.1,0,0,0,1.1-1.1V72.153a1.1,1.1,0,0,0-1.1-1.1H1.1a1.1,1.1,0,0,0-1.1,1.1v2.762A1.1,1.1,0,0,0,1.1,76.02Zm0,11.048H29.83a1.1,1.1,0,0,0,1.1-1.1V83.2a1.1,1.1,0,0,0-1.1-1.1H1.1A1.1,1.1,0,0,0,0,83.2v2.762A1.1,1.1,0,0,0,1.1,87.068Z" transform="translate(0 -60)" fill="#fff"/>
</svg>
