<svg xmlns="http://www.w3.org/2000/svg" width="23.154" height="17.645" viewBox="0 0 23.154 17.645">
  <path id="sign-out-alt-solid" d="M22.833,27.761l-7.718,7.718a1.1,1.1,0,0,1-1.884-.781v-4.41H6.983a1.1,1.1,0,0,1-1.1-1.1v-4.41a1.1,1.1,0,0,1,1.1-1.1h6.248v-4.41a1.105,1.105,0,0,1,1.884-.781L22.833,26.2A1.112,1.112,0,0,1,22.833,27.761ZM8.821,35.249V33.411a.553.553,0,0,0-.551-.551H4.41a1.469,1.469,0,0,1-1.47-1.47V22.569A1.469,1.469,0,0,1,4.41,21.1H8.27a.553.553,0,0,0,.551-.551V18.71a.553.553,0,0,0-.551-.551H4.41A4.412,4.412,0,0,0,0,22.569V31.39A4.412,4.412,0,0,0,4.41,35.8H8.27A.553.553,0,0,0,8.821,35.249Z" transform="translate(0 -18.158)" fill="#a6a6a6" opacity="0.604"/>
</svg>
